<svg xmlns="http://www.w3.org/2000/svg" viewBox="0 0 512 512">
  <defs>
    <linearGradient id="bgGrad" x1="0%" y1="0%" x2="100%" y2="100%">
      <stop offset="0%" style="stop-color:#00b6be;stop-opacity:1" />
      <stop offset="100%" style="stop-color:#008a90;stop-opacity:1" />
    </linearGradient>
    <linearGradient id="bookGrad" x1="0%" y1="0%" x2="0%" y2="100%">
      <stop offset="0%" style="stop-color:#ffffff;stop-opacity:1" />
      <stop offset="100%" style="stop-color:#f0f0f0;stop-opacity:1" />
    </linearGradient>
    <linearGradient id="treeGrad" x1="0%" y1="0%" x2="0%" y2="100%">
      <stop offset="0%" style="stop-color:#00b6be;stop-opacity:1" />
      <stop offset="50%" style="stop-color:#00a0a8;stop-opacity:1" />
      <stop offset="100%" style="stop-color:#008a90;stop-opacity:1" />
    </linearGradient>
    <filter id="shadow">
      <feGaussianBlur in="SourceAlpha" stdDeviation="3"/>
      <feOffset dx="2" dy="2" result="offsetblur"/>
      <feComponentTransfer>
        <feFuncA type="linear" slope="0.3"/>
      </feComponentTransfer>
      <feMerge>
        <feMergeNode/>
        <feMergeNode in="SourceGraphic"/>
      </feMerge>
    </filter>
    <filter id="glow">
      <feGaussianBlur stdDeviation="2" result="coloredBlur"/>
      <feMerge>
        <feMergeNode in="coloredBlur"/>
        <feMergeNode in="SourceGraphic"/>
      </feMerge>
    </filter>
  </defs>
  
  <!-- Rounded square background -->
  <rect width="512" height="512" rx="96" fill="url(#bgGrad)" stroke="#004d52" stroke-width="12"/>
  
  <!-- Open Book - LARGER and more prominent -->
  <g filter="url(#shadow)">
    <!-- Left page -->
    <path d="M 60 100 Q 60 70 90 70 L 230 70 L 230 442 L 90 442 Q 60 442 60 412 Z" 
          fill="url(#bookGrad)" stroke="#004d52" stroke-width="10"/>
    <!-- Right page -->
    <path d="M 282 70 L 422 70 Q 452 70 452 100 L 452 412 Q 452 442 422 442 L 282 442 Z" 
          fill="url(#bookGrad)" stroke="#004d52" stroke-width="10"/>
    <!-- Center binding shadow -->
    <rect x="230" y="70" width="52" height="372" fill="#e8e8e8"/>
    <rect x="240" y="70" width="4" height="372" fill="#c0c0c0" opacity="0.5"/>
    <rect x="268" y="70" width="4" height="372" fill="#c0c0c0" opacity="0.5"/>
    
    <!-- Page lines (left page) -->
    <line x1="90" y1="130" x2="210" y2="130" stroke="#005a60" stroke-width="5"/>
    <line x1="90" y1="160" x2="210" y2="160" stroke="#005a60" stroke-width="5"/>
    <line x1="90" y1="190" x2="210" y2="190" stroke="#005a60" stroke-width="5"/>
    <line x1="90" y1="220" x2="210" y2="220" stroke="#005a60" stroke-width="5"/>
    
    <!-- Page lines (right page) -->
    <line x1="302" y1="130" x2="422" y2="130" stroke="#005a60" stroke-width="5"/>
    <line x1="302" y1="160" x2="422" y2="160" stroke="#005a60" stroke-width="5"/>
    <line x1="302" y1="190" x2="422" y2="190" stroke="#005a60" stroke-width="5"/>
    <line x1="302" y1="220" x2="422" y2="220" stroke="#005a60" stroke-width="5"/>
  </g>
  
  <!-- Tree of Life - scaled and positioned on the book -->
  <g transform="translate(126, 80) scale(0.6)">
    <path fill="url(#treeGrad)" filter="url(#glow)" d="M221.6 59.5c-.9 7.1-.8 11.3-3 18.1-1.8 5.7-3.3 8.8-6.5 13.8-3.5 3.7-5.1 6.2-9.1 5.3-2.3-.5-3.7-1.6-5-3.7-3.4-5-18.1-42-20.2-43.6 0 2.7 11.7 43.4 12.7 54.2.9 8.7-.6 15.2-1.4 23.9l-3.2 14.9c-2.3.8-7.5-9-12.1-15.9-4-6-6.1-9.5-9.6-16 1-4.6 1.8-10.1 1.3-17.6s10.6-16.1 10.2-18.6c-.1-.8-3 1.1-5.9 3.1s-5.9 3.9-6.1 3c-.5-2.3-1.2-4.6-2-7-5.2-15.1-18.5-26.8-23.5-30 2.8 7.1 11.7 15.6 15.2 27.8s5 24.6 1.9 27c-4 3.2-14.2-1-22.6-6.2-12.1-7.5-15.8-17.6-19.6-17.6s8.4 12.9 10.1 20.3S98.3 97.3 96 97c-4.1-.5-5 1.6-1.7 2.7 4.9 1.6 13.8 3.2 18.6 3.9 16.1 2.1 30.2 1.7 43.3 14.3 10.9 10.5 14.8 20.2 17.1 35.6 1.3 8.3-9.9 5.3-30.5-7.2-7.4-4.2-16.7-12.1-18-25.8-1.6-3.7-3.5 10.3-1.1 15.7.8 1.9-4.6.5-10.9-.8-5.2-1.1-11.1-2.2-14.4-1.5-4.3 1.1 21.7 3.7 33.7 14 6.4 5.5 27.4 20.9 35.4 28.3 2.3 2.1 1.1 8.1-2.4 9.1-4.2 1.3-11.8.7-19.8-.4-14.3-1.9-20.5-9-27.1-14.8-6.6-5.9-15.1-20.9-15.1-20.9 0 4.8.7 11.9 3.6 16.9 2.6 4.3 4.3 6.7 7.6 10.6 0 0-26.4-6.5-33.4-6.5 1 2.7 17.4 6.3 25.1 10.7 9.2 5.2 40.4 21.2 39.4 23.8-2.1 5.5-28.3 3.7-37.4 4.8-9.3 1.1-23.9 2.7-24 5.7-.1 1.8 5.1 1.3 11.1.8 3.8-.3 8-.6 11.2-.3 15.8 1.5 26.7 1.6 40.3 5.3 9.6 2.6 21.1 9.9 23.2 14.4 2.1 4.4 4.5 8.5 4 21.9l-.9 33c-102.7 1.3-150.2 9.8-150.2 9.8s47.5 8.5 150.2 9.8l.9 33c.4 13.4-1.9 17.5-4 21.9-2.1 4.5-13.6 11.8-23.2 14.4-13.6 3.7-24.5 3.8-40.3 5.3-3.2.3-7.4 0-11.2-.3-6-.5-11.2-1-11.1.8.2 3 14.8 4.6 24 5.7 9.1 1 35.3-.7 37.4 4.8 1 2.7-30.2 18.6-39.4 23.8-7.7 4.5-24.1 8-25.1 10.7 7 0 33.4-6.5 33.4-6.5-3.2 3.9-4.9 6.3-7.6 10.6-3 5-3.6 12.1-3.6 16.9 0 0 8.6-15 15.1-20.9 6.6-5.9 12.7-12.9 27.1-14.8 7.9-1.1 15.5-1.7 19.8-.4 3.4 1.1 4.6 7 2.4 9.1-8 7.4-29 22.9-35.4 28.3-12 10.3-38.1 12.9-33.7 14 3.4.7 9.2-.4 14.4-1.5 6.3-1.3 11.8-2.7 10.9-.8-2.4 5.4-.4 19.4 1.1 15.7 1.3-13.7 10.5-21.6 18-25.8 20.6-12.6 31.7-15.5 30.5-7.2-2.3 15.4-6.2 25.1-17.1 35.6-13.1 12.6-27.2 12.2-43.3 14.3-4.9.6-13.8 2.2-18.6 3.9-3.3 1.1-2.4 3.2 1.7 2.7 2.4-.3 28.9-5 27.2 2.3-1.7 7.4-13.9 20.3-10.1 20.3s7.5-10.2 19.6-17.6c8.4-5.2 18.6-9.4 22.6-6.2 3.1 2.5 1.6 14.8-1.9 27s-12.4 20.6-15.2 27.8c5-3.2 18.3-14.9 23.5-30 .8-2.4 1.5-4.7 2-7 .2-.9 3.2 1.1 6.1 3 2.9 2 5.8 3.9 5.9 3.1.4-2.5-10.6-11.1-10.2-18.6.5-7.5-.3-12.9-1.3-17.6 3.4-6.4 5.6-9.9 9.6-16 4.6-6.9 9.8-16.7 12.1-15.9l3.2 14.9c.8 8.7 2.3 15.3 1.4 23.9-1 10.8-12.7 51.5-12.7 54.2 2-1.6 16.8-38.6 20.2-43.6 1.3-2.1 2.7-3.2 5-3.7 4-.9 5.6 1.6 9.1 5.3 3.2 5 4.7 8.1 6.5 13.8 2.2 6.7 2.2 11 3 18.1 1.2 9.9 1.6 15.5 1.5 25.5 3-2.1 7.3-31.4 2.5-48.4s-13.2-19.9-17.1-27.6 3.2-31.3 4-35.6c1.4-7 5.7-9.8 9.4-4.9 2.9 3.9 25 40.5 28.9 51.1 4 10.6 12.4 43.5 14.9 44.6-.3-7.1-6.6-28-7.8-35-1.4-7.6-2.3-15.9-2.3-18.1s7.1 5.7 14.5 12.4 15 13.5 16 12.4c-16.1-17.5-30.7-37.1-39.3-48.8-4.1-5.6-8.8-16.3-8.8-19.1s8.9 5.3 12.7 8.2c7.6 5.8 22 16.4 22.5 12.1 0 0-27.7-24.8-35.7-35.2-8.1-10.4-3.1-14 6.9-15.6s16 3.3 24.1 8.2c8.7 5.2 17.2 14.5 24.2 21.2 7.5 7.2 11.1 11.6 17.6 19.7 3.2-1.2-6.8-16.3-13.4-22.6-6.1-5.8-12.6-13.7-8.1-18.9 2.7-3.1 18.7-2.5 31.6-2 8.9.4 16.3.7 16.6-.1 1-2.6-35.8-10.5-54-10.7-18.2-.1-41.4-16.8-37.7-23s21.6-2.2 52.4 10.4c4.8.4-8.9-8.9-12.9-12 12.4-.4 32.5-9.7 31.9-12.4-19.5 6.2-30.5 6.6-45.1 2.2s-40-13-40-15.8c0-8-.3-18.4.7-32.8l1.1-20.4c98.4-1.6 143.9-9.7 143.9-9.7s-45.5-8.1-143.9-9.7l-1.1-20.4c-1-14.4-.7-24.8-.7-32.8s25.4-11.4 40-15.8 25.5-4 45.1 2.2c.5-2.7-19.5-12-31.9-12.4 4-3.1 17.6-12.4 12.9-12-30.8 12.6-48.7 16.6-52.4 10.4s19.5-22.9 37.7-23 55-8.1 54-10.7c-.3-.8-7.7-.5-16.6 0-12.9.5-29 1-31.6-2-4.5-5.2 1.9-13.1 8.1-18.9 6.6-6.3 16.6-21.4 13.4-22.6-6.5 8-10.1 12.4-17.6 19.7-7 6.8-15.5 16.1-24.2 21.2-8.1 4.8-14.1 9.8-24.1 8.2s-15-5.2-6.9-15.6 35.7-35.2 35.7-35.2c-.5-4.3-14.9 6.3-22.5 12.1-3.7 2.9-12.6 8.7-12.7 5.9 0-2.8 4.7-11.2 8.8-16.8 8.6-11.7 23.2-31.3 39.3-48.8-1-1.1-8.6 5.7-16 12.4-7.4 6.8-14.5 13.5-14.5 12.4 0-2.2.9-10.5 2.3-18.1 1.3-7 7.5-27.9 7.8-35-2.5 1.1-10.9 33.9-14.9 44.6-3.9 10.5-26 47.2-28.9 51.1-3.7 4.9-8 2.2-9.4-4.9-.8-4.3-7.9-27.9-4-35.6s12.3-10.6 17.1-27.6.5-46.3-2.5-48.4c0 10-.3 15.6-1.5 25.5"></path>
    
    <!-- Sefirot circles with glow -->
    <circle cx="313.2" cy="207" r="9" fill="#00b6be" opacity="0.9" filter="url(#glow)"/>
    <circle cx="281.8" cy="142.1" r="9.5" fill="#00b6be" opacity="0.9" filter="url(#glow)"/>
    <circle cx="96" cy="202.2" r="18" fill="#00b6be" opacity="0.9" filter="url(#glow)"/>
    <circle cx="87.6" cy="148.9" r="18" fill="#00b6be" opacity="0.9" filter="url(#glow)"/>
    <circle cx="105.1" cy="85.5" r="9" fill="#00b6be" opacity="0.9" filter="url(#glow)"/>
    <circle cx="113.4" cy="125.9" r="15" fill="#00b6be" opacity="0.9" filter="url(#glow)"/>
    <circle cx="109.9" cy="235.2" r="19" fill="#00b6be" opacity="0.9" filter="url(#glow)"/>
    <circle cx="134.1" cy="166.3" r="10" fill="#00b6be" opacity="0.9" filter="url(#glow)"/>
    <circle cx="149.7" cy="84.4" r="21" fill="#00b6be" opacity="0.9" filter="url(#glow)"/>
    <circle cx="158.6" cy="138.2" r="18" fill="#00b6be" opacity="0.9" filter="url(#glow)"/>
    <circle cx="173.1" cy="58.2" r="11" fill="#00b6be" opacity="0.9" filter="url(#glow)"/>
    <circle cx="184.8" cy="106.3" r="13" fill="#00b6be" opacity="0.9" filter="url(#glow)"/>
    <circle cx="210.8" cy="77.6" r="22" fill="#00b6be" opacity="0.9" filter="url(#glow)"/>
    <circle cx="227.2" cy="103.2" r="19" fill="#00b6be" opacity="0.9" filter="url(#glow)"/>
    <circle cx="237.9" cy="84.9" r="9" fill="#00b6be" opacity="0.9" filter="url(#glow)"/>
    <circle cx="247.1" cy="52.8" r="12" fill="#00b6be" opacity="0.9" filter="url(#glow)"/>
    <circle cx="251.1" cy="66.9" r="12" fill="#00b6be" opacity="0.9" filter="url(#glow)"/>
    <circle cx="262.9" cy="151.2" r="13" fill="#00b6be" opacity="0.9" filter="url(#glow)"/>
    <circle cx="279.5" cy="78.2" r="20" fill="#00b6be" opacity="0.9" filter="url(#glow)"/>
    <circle cx="299" cy="104.9" r="18" fill="#00b6be" opacity="0.9" filter="url(#glow)"/>
    <circle cx="315.6" cy="131.3" r="19" fill="#00b6be" opacity="0.9" filter="url(#glow)"/>
  </g>
  
</svg>